<svg xmlns="http://www.w3.org/2000/svg" viewBox="0 0 512 512"><path d="M172 146c-27 8-41 34-33 61 5 17 18 28 33 32v-30c-7-4-11-11-13-19-3-12 2-25 13-33v-11z" fill="#b17e18"/><path d="M340 146v11c11 8 16 21 13 33-2 8-6 15-13 19v30c15-4 28-15 33-32 8-27-6-53-33-61z" fill="#b17e18"/><rect x="244" y="378" width="24" height="44" fill="#8a5a34"/><rect x="210" y="418" width="92" height="30" rx="6" fill="#8a5a34"/><path d="M194 78h124v28h-24l7 26c31 22 49 57 49 98 0 78-49 150-104 150s-104-72-104-150c0-41 18-76 49-98l7-26h-24V78z" fill="#c68a3a"/><rect x="194" y="78" width="124" height="22" rx="8" fill="#e2a828"/><ellipse cx="238" cy="228" rx="26" ry="40" fill="#e0b45e" opacity="0.55"/></svg>
