<svg xmlns="http://www.w3.org/2000/svg" viewBox="0 0 512 512"><path d="M96 120C150 104 214 108 256 132C298 108 362 104 416 120V392C362 376 298 380 256 404C214 380 150 376 96 392Z" fill="#8a5a34"/><path d="M256 146C214 124 156 120 112 130V378C156 370 214 374 256 394Z" fill="#f0e0bd"/><path d="M256 146C298 124 356 120 400 130V378C356 370 298 374 256 394Z" fill="#f6ecd0"/><rect x="180" y="176" width="60" height="12" rx="6" fill="#b9a06a"/><rect x="180" y="212" width="60" height="12" rx="6" fill="#b9a06a"/><rect x="272" y="176" width="60" height="12" rx="6" fill="#c8b789"/><rect x="272" y="212" width="60" height="12" rx="6" fill="#c8b789"/><rect x="250" y="140" width="12" height="256" rx="4" fill="#5e3c22"/></svg>
