<svg xmlns="http://www.w3.org/2000/svg" viewBox="0 0 512 512"><path d="M160 108C120 108 96 132 96 166C96 196 118 218 150 224L150 198C132 194 120 182 120 166C120 148 138 134 160 134Z" fill="#b17e18"/><path d="M352 108C392 108 416 132 416 166C416 196 394 218 362 224L362 198C380 194 392 182 392 166C392 148 374 134 352 134Z" fill="#b17e18"/><path d="M160 64H352V92C352 156 328 200 288 214V300H336V332H176V300H224V214C184 200 160 156 160 92Z" fill="#e2a828"/><rect x="164" y="352" width="184" height="46" rx="8" fill="#b17e18"/><ellipse cx="230" cy="150" rx="20" ry="46" fill="#f4d27a" opacity="0.6"/></svg>
